<svg xmlns="http://www.w3.org/2000/svg" viewBox="0 0 321.36 448.5"><defs><style>.cls-1{fill:#c1272d;}.cls-2{fill:#9e005d;}.cls-3{fill:none;}.cls-4{fill:#fbb03b;}.cls-5{fill:#006837;}.cls-6{fill:#00a;}</style></defs><g id="Layer_2" data-name="Layer 2"><g id="Layer_1-2" data-name="Layer 1"><polygon class="cls-1" points="146.79 237.5 146.79 302.66 146.12 303.48 118.17 337.85 118.34 331.8 133.86 299.94 133.86 254.87 109.14 286.89 94.59 304.94 69.88 272.03 55.63 262.65 55.63 307.54 69.88 336.99 69.88 337.85 42.12 302.66 42.12 237.5 52.23 225.79 64.19 241.4 93.51 278.4 136.85 226.15 146.79 237.5"/><polygon class="cls-2" points="69.88 272.04 69.88 336.99 55.63 307.54 55.63 262.65 69.88 272.04"/><polygon class="cls-2" points="133.86 254.87 133.86 299.94 118.35 331.81 120.07 273.34 109.14 286.89 133.86 254.87"/><polygon class="cls-2" points="136.85 226.15 93.51 278.4 64.19 241.41 52.23 225.79 63.33 212.95 95.58 253.57 126.62 214.47 136.85 226.15"/><path class="cls-3" d="M136.85,226.15l-10.23-11.68-31,39.1L63.33,213l-11.1,12.84L42.12,237.5v65.16l27.76,35.19V272l24.71,32.91,14.55-18.05,10.92-13.55-1.72,58.46-.17,6.05,28-34.37.67-.82V237.5Z"/><path class="cls-4" d="M307.69,99.91c-.36-7.7-3.26-10.42-10.82-10.3-20.75.31-41.51.11-61.12.11-3.89-13.94-6.1-24.41-9.78-34.34s-7.89-19.88-13.46-28.83c-20.48-32.89-62.06-36-85.28-4.92-12,16-18.92,35.84-28.33,53.84-1.8,3.44-4.28,8.87-6.91,9.15C67.76,87.24,43.43,88.92,18.22,91c-.4,3.27-1.07,7-1.28,10.65C11.58,200.83,7.1,300.1.2,399.21c-1.34,19.25,3.86,28.71,20,36.05,12.52,5.7,22.87,14.49,38.71,13.09,71.27-6.27,142.66-11.2,214-16.66L283,430.9a41.74,41.74,0,0,0,38.36-43.59C316.68,290.67,312.09,195.3,307.69,99.91ZM228.23,86.75H210c-3.09-14.85-4.53-29.8-9.51-43.46C195.58,29.83,187.1,17.68,181,6.43,202.88,9.23,223.38,41.93,228.23,86.75ZM179.46,14.94c13.66,11.79,19.1,28.17,21.39,45,4.23,31.1,8.51,27.59-22.78,27.43-15.27-.09-30.54-.5-45.81-.88-1.62,0-3.22-.83-6.45-1.72,2.56-24.85,6.85-48,22.33-67.32C158.2,4.89,167.16,4.33,179.46,14.94Zm-38.75-1.81c-6.35,21.36-13,42.58-18.9,64-2.64,9.59-2.36,9.91-20.87,6.68C109.18,56.65,117.64,30.17,140.71,13.13Zm141.71,262.5c-3.31-3.31-10.92-8.05-12-8.07s-4.13-1.81-4.13-1.81l-1.1-1.4.43-8.4-26.37-9.64-26.5,8.82s.22,7.4,5.13,10.61,13.85,3.44,13.85,3.44l21.89.42s13.56,1.43,20.35,7.55,10.78,14.32,11.33,16.71-.11,8.53-.11,8.53l-48.21,32.17-11.23-8.78,8.95,7.2H145.8l.32-29.5-27.95,34.37.17-6.05,1.72-58.46-10.92,13.55L94.59,304.94,69.88,272v65.82L42.12,302.66V237.5l10.11-11.71L63.33,213l32.25,40.62,31-39.1,10.23,11.68,9.94,11.35v4.77l.22-20L159.06,233l.9.8,12,10.65v66.79l34.23.55-15.07-10.85,1.11-23,10.28,7.29,9.69,4.14-.05,4.14L238.33,313l26.26-18s-2-4.55-4.24-6-9.54-3.64-9.54-3.64l-14.22-.06s-19.51,1.25-30.43-6.17-12.75-14.86-12.75-14.86-1.65-7.8-1.59-12.94v0c0-5.11-16-4.53-16-4.53l16.91-4.58,46.77-12.69s45.72,13.78,46.2,13.79-.44,33.25-.44,33.25S285.73,278.93,282.42,275.63Z"/><path class="cls-5" d="M285.26,293.86c.56,2.39-.11,8.53-.11,8.53l-48.21,32.17-11.23-8.78h0l-5.37-4.32-12-9.66-2.08,0-15.07-10.85,1.11-23,10.28,7.29,9.69,4.14-.05,4.14L238.33,313l26.26-18s-2-4.55-4.24-6-9.54-3.64-9.54-3.64l-14.22-.06s-19.51,1.25-30.43-6.17-12.75-14.86-12.75-14.86-1.65-7.8-1.59-12.94v0c0-5.11-16-4.53-16-4.53l16.91-4.58,46.77-12.69s45.72,13.78,46.2,13.79-.44,33.25-.44,33.25.45,2.39-2.86-.91-10.92-8.05-12-8.07-4.13-1.81-4.13-1.81l-1.1-1.4.43-8.4-26.37-9.64-26.5,8.82s.22,7.4,5.13,10.61,13.85,3.44,13.85,3.44l21.89.42s13.56,1.43,20.35,7.55S284.71,291.47,285.26,293.86Z"/><polygon class="cls-6" points="234.66 332.98 145.8 332.98 146.12 303.48 146.79 302.66 146.79 242.27 147.01 222.32 159.06 232.97 159.96 233.77 172.01 244.42 172.01 311.21 206.24 311.76 208.32 311.79 220.33 321.45 225.7 325.77 225.71 325.78 234.66 332.98"/><polygon class="cls-5" points="146.79 242.27 146.79 302.66 146.12 303.48 146.79 242.27"/></g></g></svg>